<svg width="16" height="16" viewBox="0 0 16 16" fill="none" xmlns="http://www.w3.org/2000/svg">
<path fill-rule="evenodd" clip-rule="evenodd" d="M14.6957 8.0002C14.6957 11.698 11.698 14.6957 8.0002 14.6957C4.30237 14.6957 1.30469 11.698 1.30469 8.0002C1.30469 4.30237 4.30237 1.30469 8.0002 1.30469C11.698 1.30469 14.6957 4.30237 14.6957 8.0002ZM8.0002 13.3624C10.9617 13.3624 13.3624 10.9617 13.3624 8.0002C13.3624 5.03875 10.9617 2.63802 8.0002 2.63802C5.03875 2.63802 2.63802 5.03875 2.63802 8.0002C2.63802 10.9617 5.03875 13.3624 8.0002 13.3624ZM8.66699 11.3335H7.33366V7.33354H8.66699V11.3335ZM7.33366 6.0002H8.66699V4.66687H7.33366V6.0002Z" fill="#2B2015"/>
</svg>
