<svg width="24" height="24" viewBox="0 0 24 24" fill="none" xmlns="http://www.w3.org/2000/svg">
<g id="icon/content/create_24px">
<path id="Union" fill-rule="evenodd" clip-rule="evenodd" d="M9.93889 18H6V14.0607L14.5143 5.54583C14.8703 5.18974 15.3451 5 15.8318 5C16.2941 5 16.7768 5.16763 17.155 5.54583L18.4528 6.84382C19.1824 7.57345 19.1824 8.75512 18.4528 9.48475L9.93889 18ZM15.8318 6.31437C15.6876 6.31437 15.549 6.36984 15.4436 6.47523L14.4286 7.49033L16.5085 9.57044L17.5235 8.55535C17.7398 8.33901 17.7398 7.98955 17.5235 7.77322L16.2256 6.47523C16.1147 6.36429 15.9761 6.31437 15.8318 6.31437ZM7.31425 14.6052V16.6856H9.39451L15.5299 10.5497L13.4496 8.46923L7.31425 14.6052Z" fill="#2B2015"/>
</g>
</svg>
