<svg width="182" height="24" viewBox="0 0 182 24" fill="none" xmlns="http://www.w3.org/2000/svg">
<path d="M2.86426 13.5093L0.0971016 7.58003C0.0325111 7.43874 -0.000607296 7.28527 8.43054e-06 7.13011C0.0011504 6.98031 0.0342413 6.83245 0.0971016 6.69627C0.158483 6.56486 0.240406 6.44393 0.339835 6.33794C0.446312 6.22216 0.579622 6.13391 0.728207 6.08084C0.866366 6.02328 1.01537 5.99588 1.16513 6.0005C1.30906 6.00233 1.45152 6.02953 1.58586 6.08084C1.7229 6.13048 1.84528 6.21333 1.94187 6.32187C2.05485 6.42435 2.14332 6.55062 2.20079 6.69145L4.01319 10.7728L5.8256 6.69627C5.88307 6.55544 5.97153 6.42917 6.08451 6.32669C6.19563 6.22818 6.32111 6.14691 6.45671 6.08566C6.59105 6.03435 6.73351 6.00715 6.87744 6.00532C7.02648 6.00861 7.17402 6.03574 7.31436 6.08566C7.45618 6.14273 7.58335 6.23057 7.68655 6.34276C7.78196 6.45011 7.8635 6.56886 7.92928 6.69627C7.98245 6.83483 8.00987 6.98183 8.0102 7.13011C8.00832 7.28348 7.98099 7.4355 7.92928 7.58003L5.17831 13.445L5.00031 13.8307C4.72521 14.4091 4.46629 14.8912 4.22356 15.3089C4.0071 15.6723 3.75213 16.0117 3.463 16.3213C3.21665 16.5778 2.919 16.7803 2.58916 16.9158C2.23142 17.0518 1.85493 17.1331 1.47259 17.1568C1.45641 17.1568 1.42404 17.1729 1.40786 17.1729H1.32695C1.17861 17.1776 1.03062 17.1558 0.890029 17.1086C0.758119 17.0605 0.63302 16.9957 0.517839 16.9158C0.410828 16.8308 0.327306 16.7202 0.275106 16.5944C0.208946 16.4651 0.175615 16.3217 0.178013 16.1766C0.177397 16.0215 0.210515 15.868 0.275106 15.7267C0.336791 15.5921 0.418627 15.4675 0.517839 15.3572C0.621951 15.2499 0.749207 15.1675 0.890029 15.1161C1.02718 15.0537 1.17609 15.0208 1.32695 15.0197H1.3755C1.55687 15.0243 1.73764 14.9971 1.90951 14.9394C2.04169 14.8892 2.15869 14.8062 2.24933 14.6983C2.35584 14.5875 2.43844 14.4563 2.49207 14.3127C2.57298 14.1681 2.65389 13.9753 2.76716 13.7664L2.86426 13.5093Z" fill="#007E87"/>
<path d="M13.9976 6.0166C14.5636 6.01602 15.1243 6.12519 15.6482 6.33797C16.1496 6.55016 16.6054 6.85559 16.9913 7.2378C17.7851 8.02679 18.233 9.0952 18.2373 10.2105C18.242 10.7693 18.1262 11.3227 17.8975 11.8334C17.6817 12.3254 17.3743 12.7724 16.9913 13.151C16.6047 13.5283 16.1488 13.8283 15.6482 14.0347C15.1266 14.2551 14.5643 14.3646 13.9976 14.3561H11.9425V15.9469C11.9421 16.0952 11.9147 16.2422 11.8615 16.3807C11.7447 16.6468 11.5308 16.8592 11.2628 16.9753C11.1255 17.0357 10.9759 17.0632 10.8259 17.0556C10.6766 17.0553 10.5285 17.0281 10.389 16.9753C10.2551 16.9197 10.134 16.8377 10.033 16.7342C9.93038 16.6326 9.84803 16.5127 9.79023 16.3807C9.72938 16.2444 9.70167 16.0958 9.70931 15.9469V7.12532C9.70964 6.97703 9.73705 6.83004 9.79023 6.69147C9.90712 6.42539 10.121 6.21301 10.389 6.09694C10.5263 6.03653 10.6759 6.00901 10.8259 6.0166H13.9976ZM11.9425 8.26618V12.1226H14.03C14.2871 12.1251 14.5415 12.0702 14.7743 11.9619C15.0063 11.8665 15.2157 11.7242 15.3893 11.5441C15.5671 11.3688 15.7099 11.1617 15.81 10.9335C15.9131 10.706 15.9681 10.4599 15.9718 10.2105C15.9743 9.95515 15.919 9.70255 15.81 9.47131C15.708 9.24421 15.5655 9.03734 15.3893 8.86071C15.209 8.68431 15.0014 8.53782 14.7743 8.42686C14.5466 8.32035 14.2979 8.26546 14.0461 8.26618H11.9425Z" fill="#007E87"/>
<path d="M19.726 7.1783C19.7229 7.00564 19.7618 6.83479 19.8392 6.68018C19.9181 6.53471 20.0222 6.40417 20.1467 6.29454C20.2447 6.21522 20.3537 6.15029 20.4703 6.10171C20.5877 6.05051 20.7143 6.02319 20.8425 6.02137H26.037C26.1915 6.02323 26.3446 6.05038 26.4901 6.10171C26.6254 6.16148 26.7509 6.24111 26.8623 6.33792C26.9665 6.43821 27.0491 6.55848 27.105 6.69143C27.1659 6.82775 27.1936 6.97636 27.1859 7.12527C27.1841 7.27864 27.1567 7.43066 27.105 7.57519C27.0432 7.70489 26.9613 7.82417 26.8623 7.92869C26.7539 8.03072 26.6278 8.11239 26.4901 8.16972C26.3467 8.22873 26.1921 8.25614 26.037 8.25006H21.9753V10.3229H24.613C25.0696 10.3218 25.5214 10.4148 25.9399 10.5961C26.7669 10.9522 27.4201 11.6163 27.759 12.4457C28.0979 13.275 28.0955 14.2033 27.7523 15.0309C27.5866 15.4309 27.3386 15.7922 27.0241 16.0915C26.7173 16.4008 26.3477 16.6418 25.9399 16.7985C25.5198 16.973 25.0683 17.0604 24.613 17.0556H20.8749C20.7204 17.0537 20.5673 17.0266 20.4218 16.9752C20.2862 16.914 20.1607 16.8327 20.0496 16.7342C19.9364 16.6352 19.8525 16.5074 19.8069 16.3646C19.7423 16.2233 19.7092 16.0699 19.7098 15.9147V7.17348L19.726 7.1783ZM22.0076 12.4327V14.8269H24.613C24.7692 14.8275 24.9238 14.7946 25.0661 14.7305C25.2079 14.6734 25.3351 14.5856 25.4383 14.4734C25.5481 14.362 25.6359 14.2312 25.6972 14.0877C25.7613 13.935 25.7943 13.7711 25.7943 13.6057C25.7943 13.4402 25.7613 13.2764 25.6972 13.1236C25.6397 12.9828 25.5513 12.8565 25.4383 12.754C25.3245 12.659 25.1995 12.5781 25.0661 12.513C24.9227 12.454 24.7681 12.4266 24.613 12.4327H22.0076Z" fill="#007E87"/>
<path d="M36.7659 15.1641H32.154L31.6523 16.3853C31.5948 16.5261 31.5064 16.6524 31.3934 16.7549C31.2857 16.8538 31.1592 16.9303 31.0212 16.9798C30.8806 17.027 30.7326 17.0488 30.5843 17.0441C30.428 17.0447 30.2735 17.0118 30.1312 16.9477C29.9894 16.8906 29.8622 16.8028 29.759 16.6906C29.6679 16.5864 29.5966 16.4666 29.5486 16.3371C29.4998 16.2035 29.4832 16.0604 29.5001 15.9193C29.5167 15.7648 29.5548 15.6134 29.6134 15.4694L33.4324 6.67995C33.5176 6.47483 33.6645 6.30085 33.8531 6.18183C34.0367 6.06543 34.2502 6.00406 34.468 6.00508C34.6807 6.00449 34.8889 6.06595 35.0668 6.18183C35.2518 6.30479 35.3978 6.47758 35.4875 6.67995L39.3389 15.4855C39.3991 15.6233 39.4373 15.7697 39.4521 15.9193C39.469 16.0604 39.4524 16.2035 39.4036 16.3371C39.3559 16.4716 39.2847 16.5967 39.1932 16.7067C39.0959 16.8183 38.9741 16.9062 38.8372 16.9637C38.7001 17.0262 38.5512 17.059 38.4003 17.0602C38.2505 17.0648 38.1015 17.0374 37.9634 16.9798C37.8285 16.9241 37.7029 16.8483 37.5912 16.7549C37.4781 16.6488 37.385 16.5237 37.3161 16.3853L36.7659 15.1641ZM33.0602 12.9258H35.8273L34.4518 9.61565L33.0602 12.9258Z" fill="#007E87"/>
<path d="M43.3359 10.4398H48.7246V7.12974C48.7225 6.97959 48.7557 6.83103 48.8217 6.69589C48.8835 6.56619 48.9654 6.44691 49.0644 6.34239C49.1728 6.24036 49.2989 6.15869 49.4366 6.10136C49.5748 6.0438 49.7238 6.0164 49.8735 6.02102C50.0227 6.02285 50.1705 6.05002 50.3104 6.10136C50.4443 6.15693 50.5654 6.23893 50.6664 6.34239C50.7654 6.44691 50.8474 6.56619 50.9092 6.69589C50.97 6.83221 50.9977 6.98082 50.9901 7.12974V15.9674C50.9898 16.1157 50.9623 16.2627 50.9092 16.4012C50.7923 16.6673 50.5784 16.8797 50.3104 16.9958C50.1731 17.0562 50.0235 17.0837 49.8735 17.0761C49.7242 17.0758 49.5761 17.0486 49.4366 16.9958C49.2996 16.9461 49.1772 16.8633 49.0806 16.7547C48.978 16.6531 48.8957 16.5332 48.8379 16.4012C48.777 16.2649 48.7493 16.1163 48.7569 15.9674V12.6894H43.3683V15.9674C43.368 16.1157 43.3405 16.2627 43.2874 16.4012C43.1705 16.6673 42.9566 16.8797 42.6886 16.9958C42.5513 17.0562 42.4017 17.0837 42.2517 17.0761C42.1024 17.0758 41.9543 17.0486 41.8148 16.9958C41.6809 16.9402 41.5598 16.8582 41.4588 16.7547C41.3562 16.6531 41.2738 16.5332 41.216 16.4012C41.1552 16.2649 41.1275 16.1163 41.1351 15.9674V7.12974C41.1355 6.98145 41.1629 6.83446 41.216 6.69589C41.3329 6.42981 41.5468 6.21743 41.8148 6.10136C41.9521 6.04095 42.1017 6.01343 42.2517 6.02102C42.401 6.02134 42.5491 6.04856 42.6886 6.10136C42.8221 6.1555 42.9432 6.23584 43.0446 6.33757C43.1472 6.4392 43.2296 6.55913 43.2874 6.69107C43.3482 6.82739 43.3759 6.976 43.3683 7.12492V10.435L43.3359 10.4398Z" fill="#007E87"/>
<path fill-rule="evenodd" clip-rule="evenodd" d="M80.2619 17.0763H87.7866V18.7105C87.7839 18.785 87.7968 18.8592 87.8247 18.9284C87.8526 18.9976 87.8947 19.0602 87.9485 19.1122C88.004 19.1659 88.0699 19.2078 88.1422 19.2354C88.2146 19.263 88.2918 19.2758 88.3692 19.2729C88.444 19.2747 88.5185 19.2613 88.588 19.2337C88.6575 19.206 88.7207 19.1647 88.7736 19.1121C88.8266 19.0595 88.8682 18.9968 88.8961 18.9278C88.9239 18.8588 88.9373 18.7848 88.9356 18.7105V16.4449C88.9259 16.3547 88.8984 16.2673 88.8546 16.1878C88.8081 16.1174 88.7475 16.0573 88.6766 16.011L88.5472 15.9467C88.4899 15.9269 88.4298 15.916 88.3692 15.9146H87.9808V6.56278C87.982 6.4909 87.9683 6.41955 87.9404 6.35319C87.9126 6.28683 87.8712 6.22689 87.819 6.17714C87.7149 6.07414 87.5772 6.01145 87.4306 6.00038H83.2556C83.1274 5.99563 83.0015 6.03541 82.8996 6.11286C82.7974 6.18166 82.7229 6.28409 82.6892 6.40209V6.41816L79.9383 15.9307H79.6632C79.5241 15.94 79.3926 15.9967 79.291 16.0914C79.2408 16.1393 79.2006 16.1966 79.1728 16.2601C79.1451 16.3235 79.1302 16.3918 79.1292 16.4609V18.7475C79.1264 18.8219 79.1393 18.8962 79.1672 18.9653C79.1951 19.0345 79.2372 19.0972 79.291 19.1492C79.3465 19.2028 79.4124 19.2447 79.4848 19.2723C79.5571 19.3 79.6343 19.3127 79.7117 19.3099C79.7841 19.3111 79.856 19.2974 79.9228 19.2698C79.9896 19.2421 80.05 19.2011 80.1001 19.1492C80.1538 19.0972 80.196 19.0345 80.2239 18.9653C80.2517 18.8962 80.2647 18.8219 80.2619 18.7475V17.0763ZM86.8481 15.9355H81.1196L83.6925 7.14124H86.8481V15.9355Z" fill="#2B2015"/>
<path d="M76.9767 16.5141C76.9806 16.5864 76.968 16.6585 76.94 16.7253C76.912 16.792 76.8692 16.8517 76.8148 16.8998C76.7647 16.9517 76.7044 16.9927 76.6375 17.0204C76.5707 17.048 76.4989 17.0617 76.4265 17.0605C76.3515 17.0632 76.2767 17.0503 76.2071 17.0227C76.1374 16.995 76.0743 16.9531 76.0219 16.8998C75.9697 16.85 75.9283 16.7901 75.9005 16.7237C75.8726 16.6574 75.8589 16.586 75.8601 16.5141V8.19069L68.9827 16.8034C68.9179 16.9159 68.8145 17.0015 68.6914 17.0444L68.6752 17.0605H68.659C68.6073 17.0803 68.5526 17.0911 68.4972 17.0926C68.3762 17.1 68.2562 17.0659 68.1574 16.9962C68.0844 16.9463 68.0254 16.8789 67.9857 16.8002C67.9461 16.7215 67.9272 16.6342 67.9308 16.5463V6.59992C67.928 6.52545 67.941 6.45123 67.9689 6.38204C67.9967 6.31285 68.0389 6.25023 68.0926 6.1982C68.1441 6.14358 68.207 6.10086 68.2769 6.07309C68.3468 6.04532 68.422 6.03318 68.4972 6.03752C68.5721 6.03576 68.6465 6.0491 68.716 6.07674C68.7855 6.10438 68.8487 6.14574 68.9016 6.19832C68.9546 6.2509 68.9962 6.3136 69.0241 6.38263C69.0519 6.45166 69.0653 6.52558 69.0636 6.59992V14.9073L75.9734 6.26248C76.0274 6.19396 76.096 6.13823 76.1744 6.09932C76.2528 6.06041 76.3389 6.0393 76.4265 6.03752C76.5292 6.03719 76.63 6.06499 76.7178 6.11786C76.7984 6.17107 76.865 6.2427 76.9119 6.32675C76.9683 6.41256 76.9966 6.51359 76.9928 6.61598V16.5141H76.9767Z" fill="#2B2015"/>
<path d="M60.6813 6.4227L60.6975 6.39056C60.7312 6.30757 60.7871 6.23533 60.8593 6.18167C60.9258 6.12852 61.0031 6.09017 61.0858 6.06919C61.1164 6.05611 61.1497 6.05059 61.1829 6.05313H61.28C61.3184 6.05176 61.3568 6.0572 61.3933 6.06919C61.479 6.08852 61.5588 6.12772 61.6263 6.18358C61.6938 6.23943 61.7471 6.31036 61.7817 6.39056L66.1347 16.2726C66.1666 16.3406 66.1832 16.4146 66.1832 16.4896C66.1832 16.5645 66.1666 16.6386 66.1347 16.7065C66.1051 16.777 66.0611 16.8405 66.0053 16.8931C65.9496 16.9457 65.8834 16.9861 65.811 17.0118C65.673 17.0731 65.5164 17.0789 65.3741 17.0279C65.3038 17.0018 65.24 16.961 65.187 16.9084C65.134 16.8557 65.0929 16.7923 65.0666 16.7226L61.2476 8.07775L57.5096 16.7226C57.4801 16.7931 57.4361 16.8567 57.3803 16.9093C57.3246 16.9619 57.2583 17.0023 57.1859 17.0279C57.0382 17.0789 56.8765 17.0732 56.7328 17.0118C56.5939 16.9541 56.4834 16.8444 56.4254 16.7065C56.374 16.5653 56.3798 16.4097 56.4415 16.2726L60.6813 6.4227Z" fill="#2B2015"/>
<path d="M91.6217 17.0761C91.5508 17.0738 91.481 17.057 91.417 17.0265C91.3529 16.9961 91.2959 16.9528 91.2495 16.8994C91.152 16.7883 91.1001 16.6449 91.1039 16.4977V6.58343C91.0995 6.50878 91.1118 6.43409 91.1397 6.36467C91.1677 6.29524 91.2107 6.23278 91.2657 6.18172C91.3758 6.08014 91.52 6.02286 91.6703 6.02103H98.2402C98.313 6.01717 98.3856 6.02961 98.4529 6.05743C98.5201 6.08524 98.5802 6.12772 98.6286 6.18172C98.7327 6.28993 98.7908 6.4338 98.7908 6.58343C98.7908 6.73306 98.7327 6.87693 98.6286 6.98514C98.5785 7.03702 98.5182 7.07808 98.4513 7.10573C98.3845 7.13338 98.3126 7.14703 98.2402 7.14582H92.2205V10.8576H96.8C96.875 10.8549 96.9498 10.8677 97.0194 10.8954C97.0891 10.9231 97.1522 10.965 97.2046 11.0183C97.2572 11.0712 97.2986 11.134 97.3263 11.203C97.3541 11.2719 97.3677 11.3457 97.3664 11.42C97.3703 11.4922 97.3578 11.5644 97.3298 11.6312C97.3017 11.6979 97.259 11.7576 97.2046 11.8057C97.1522 11.859 97.0891 11.9009 97.0194 11.9286C96.9498 11.9562 96.875 11.9691 96.8 11.9664H92.2205V15.9353H98.2241C98.2968 15.9314 98.3695 15.9438 98.4367 15.9717C98.5039 15.9995 98.564 16.0419 98.6124 16.0959C98.7165 16.2042 98.7746 16.348 98.7746 16.4977C98.7746 16.6473 98.7165 16.7912 98.6124 16.8994C98.5623 16.9512 98.502 16.9923 98.4352 17.02C98.3683 17.0476 98.2965 17.0613 98.2241 17.06H91.6217V17.0761Z" fill="#2B2015"/>
<path fill-rule="evenodd" clip-rule="evenodd" d="M106.623 6.33772C106.127 6.12517 105.593 6.0158 105.053 6.01635V6.00028H101.849C101.774 5.99852 101.7 6.01187 101.63 6.03951C101.56 6.06715 101.497 6.10851 101.444 6.16109C101.391 6.21366 101.35 6.27637 101.322 6.3454C101.294 6.41442 101.281 6.48834 101.282 6.56268V16.509C101.287 16.6528 101.345 16.7899 101.444 16.8947C101.496 16.9493 101.559 16.992 101.629 17.0198C101.698 17.0476 101.774 17.0597 101.849 17.0554C101.924 17.0581 101.999 17.0453 102.068 17.0176C102.138 16.9899 102.201 16.948 102.253 16.8947C102.308 16.8466 102.351 16.7869 102.379 16.7202C102.407 16.6534 102.419 16.5813 102.415 16.509V13.9702H105.037C105.581 13.9777 106.121 13.8738 106.623 13.6649C107.099 13.4632 107.532 13.1743 107.901 12.8133C108.264 12.4533 108.555 12.028 108.759 11.56C108.969 11.0729 109.074 10.5473 109.066 10.0174C109.072 9.48243 108.967 8.95194 108.759 8.45876C108.561 7.98279 108.27 7.55108 107.901 7.18935C107.532 6.82836 107.099 6.53946 106.623 6.33772ZM102.415 12.8615V7.14114H105.069C105.466 7.14245 105.859 7.23021 106.218 7.39824C106.897 7.72233 107.433 8.28269 107.723 8.97294C107.862 9.30389 107.933 9.65886 107.933 10.0174C107.933 10.3759 107.862 10.7309 107.723 11.0618C107.588 11.404 107.384 11.7156 107.124 11.9777C106.872 12.2534 106.563 12.4725 106.218 12.6205C105.852 12.7833 105.454 12.8656 105.053 12.8615H102.415Z" fill="#2B2015"/>
<path d="M122.05 0.840441C121.985 0.711049 121.974 0.561864 122.018 0.424274C122.062 0.286684 122.158 0.171413 122.286 0.102719C122.414 0.034025 122.563 0.0172642 122.703 0.0559572C122.844 0.0946503 122.963 0.18578 123.037 0.31018L129.283 11.248C129.331 11.3312 129.356 11.4254 129.356 11.5211C129.356 11.6169 129.331 11.711 129.283 11.7943L122.891 22.7369C122.844 22.8204 122.776 22.8906 122.694 22.9412C122.612 22.9917 122.518 23.0209 122.422 23.0261H117.503C117.358 23.0221 117.22 22.9632 117.118 22.8616C117.016 22.76 116.956 22.6234 116.952 22.4798C116.946 22.4225 116.951 22.3645 116.968 22.3093C116.985 22.2541 117.012 22.2028 117.049 22.1584L123.215 11.5051L117.195 1.10878H113.538L119.428 11.2158C119.476 11.2991 119.501 11.3932 119.501 11.489C119.501 11.5848 119.476 11.6789 119.428 11.7622L113.069 22.7048C112.993 22.8326 112.87 22.9256 112.726 22.9633C112.582 23.0009 112.429 22.9802 112.3 22.9056C112.171 22.831 112.078 22.7087 112.04 22.5656C112.002 22.4224 112.023 22.2702 112.098 22.1424L118.312 11.4729L112.114 0.851685C112.043 0.765931 112.009 0.656722 112.017 0.546386C112.016 0.474462 112.03 0.40313 112.057 0.336557C112.085 0.269983 112.125 0.2095 112.176 0.158641C112.228 0.107781 112.289 0.0675667 112.356 0.040339C112.423 0.0131113 112.495 -0.000583165 112.567 6.00059e-05H117.486C117.582 -0.00138575 117.677 0.0233183 117.759 0.0714823C117.842 0.119646 117.91 0.189427 117.956 0.273225L124.348 11.2319C124.395 11.3151 124.421 11.4093 124.421 11.5051C124.421 11.6009 124.395 11.695 124.348 11.7782L118.457 21.8901H122.082L128.134 11.4777L122.05 0.840441Z" fill="#007E87"/>
<path d="M141.746 7.76455L141.754 7.76919L141.761 7.77308L141.771 7.77799C141.825 7.80496 141.921 7.85293 142.026 7.85293C142.21 7.85293 142.39 7.76083 142.5 7.58644L142.504 7.57936L142.508 7.57189L142.512 7.5646C142.541 7.50655 142.588 7.41286 142.588 7.29415C142.588 7.11431 142.499 6.93871 142.345 6.82941L142.344 6.82893L142.343 6.82845C141.534 6.26577 140.493 6 139.265 6C137.59 6 136.22 6.62387 135.268 7.6521C134.319 8.67867 133.797 10.0979 133.797 11.6757C133.797 13.3848 134.362 14.8065 135.352 15.8016C136.342 16.7968 137.743 17.3514 139.388 17.3514C140.565 17.3514 141.807 16.9425 142.613 16.3184L142.614 16.3177L142.615 16.3171C142.734 16.2225 142.82 16.0495 142.82 15.8887C142.82 15.7668 142.772 15.6541 142.707 15.5688L142.704 15.5642L142.7 15.5599C142.583 15.4237 142.444 15.3453 142.273 15.3453C142.149 15.3453 142.039 15.3939 141.95 15.447L141.945 15.45L141.94 15.4534C141.26 15.923 140.432 16.2032 139.45 16.2032C138.143 16.2032 137.045 15.7479 136.274 14.9618C135.502 14.1754 135.046 13.0456 135.046 11.6757C135.046 10.3583 135.48 9.22663 136.221 8.42617C136.962 7.6269 138.017 7.14821 139.28 7.14821C140.289 7.14821 141.072 7.34227 141.746 7.76455Z" fill="#2B2015"/>
<path fill-rule="evenodd" clip-rule="evenodd" d="M153.798 16.9549L155.264 13.5673H160.214L161.68 16.9539L161.68 16.9549L161.68 16.9559C161.772 17.1597 161.975 17.2901 162.212 17.2901C162.375 17.2901 162.522 17.216 162.627 17.1122C162.731 17.0084 162.806 16.8621 162.806 16.7007C162.806 16.6258 162.783 16.5428 162.766 16.4919L162.763 16.4844L158.364 6.48841L158.364 6.48742C158.287 6.31592 158.099 6.0766 157.755 6.0766C157.422 6.0766 157.236 6.31984 157.161 6.48742L152.746 16.4997L152.743 16.5073C152.726 16.5581 152.703 16.6411 152.703 16.716C152.703 17.0231 152.948 17.2901 153.281 17.2901C153.507 17.2901 153.708 17.1561 153.798 16.9559L153.798 16.9549ZM155.756 12.4191L157.739 7.86019L159.722 12.4191H155.756Z" fill="#2B2015"/>
<path d="M148.343 17.2901C148.683 17.2901 148.952 17.0317 148.952 16.7007V7.28609H152.384C152.698 7.28609 152.947 7.03878 152.947 6.7273C152.947 6.39427 152.707 6.13788 152.384 6.13788H144.317C144.003 6.13788 143.754 6.38519 143.754 6.69666C143.754 7.0297 143.994 7.28609 144.317 7.28609H147.749V16.7007C147.749 17.0275 148.014 17.2901 148.343 17.2901Z" fill="#2B2015"/>
<path fill-rule="evenodd" clip-rule="evenodd" d="M171.27 9.51557C171.27 8.69021 171.05 7.83232 170.422 7.18038C169.793 6.52658 168.78 6.10724 167.252 6.10724C166.757 6.10724 165.754 6.12257 165.059 6.13788C164.716 6.13903 164.437 6.41653 164.437 6.75794V16.7007C164.437 17.0275 164.701 17.2901 165.031 17.2901C165.371 17.2901 165.64 17.0317 165.64 16.7007V12.9212C166.206 12.9574 166.792 12.9699 167.252 12.9699C168.63 12.9699 169.639 12.5559 170.303 11.9063C170.966 11.2577 171.27 10.3905 171.27 9.51557ZM167.221 11.8217C166.666 11.8217 166.174 11.7967 165.64 11.7578V7.2812C166.156 7.26768 166.903 7.25545 167.329 7.25545C168.319 7.25545 168.986 7.5048 169.406 7.89536C169.824 8.28456 170.021 8.83784 170.021 9.50025C170.021 10.1935 169.782 10.7669 169.326 11.169C168.868 11.573 168.171 11.8217 167.221 11.8217Z" fill="#2B2015"/>
<path d="M176.892 17.2901C177.233 17.2901 177.501 17.0317 177.501 16.7007V7.28609H180.934C181.248 7.28609 181.496 7.03878 181.496 6.7273C181.496 6.39427 181.256 6.13788 180.934 6.13788H172.867C172.553 6.13788 172.304 6.38519 172.304 6.69666C172.304 7.0297 172.544 7.28609 172.867 7.28609H176.299V16.7007C176.299 17.0275 176.563 17.2901 176.892 17.2901Z" fill="#2B2015"/>
</svg>
