<svg width="133" height="24" viewBox="0 0 133 24" fill="none" xmlns="http://www.w3.org/2000/svg">
<path d="M6.21739 11.806L8.42503 6.62125C8.47866 6.49163 8.55314 6.38053 8.64847 6.28794C8.74381 6.19536 8.84808 6.12437 8.9613 6.07499C9.08047 6.02562 9.20262 6.00093 9.32775 6.00093C9.45288 5.99475 9.57801 6.01944 9.70314 6.07499C9.82826 6.13055 9.93552 6.2077 10.0249 6.30646C10.1143 6.40522 10.1828 6.51632 10.2305 6.63977C10.2781 6.75704 10.302 6.88357 10.302 7.01937C10.3079 7.14899 10.2841 7.27861 10.2305 7.40823L7.20055 14.2503L7.07542 14.5558C6.80729 15.1545 6.55107 15.6699 6.30677 16.102C6.06247 16.5279 5.80327 16.8797 5.52918 17.1575C5.25509 17.4291 4.9512 17.6327 4.61752 17.7685C4.28384 17.9043 3.89356 17.9784 3.44667 17.9907C3.42879 17.9969 3.40794 18 3.38411 18C3.36623 18 3.34835 18 3.33048 18C3.06234 18 2.82996 17.9198 2.63333 17.7593C2.44266 17.5988 2.34732 17.3797 2.34732 17.1019C2.34732 16.9538 2.37115 16.818 2.41882 16.6945C2.47245 16.5649 2.54395 16.4538 2.63333 16.3612C2.72271 16.2687 2.82698 16.1977 2.94615 16.1483C3.06532 16.0927 3.19343 16.065 3.33048 16.065C3.60457 16.0711 3.831 16.0434 4.00975 15.9816C4.18851 15.9199 4.34045 15.8242 4.46558 15.6946C4.59667 15.5588 4.70988 15.3922 4.80522 15.1947C4.90651 14.991 5.01972 14.7533 5.14485 14.4818L5.23423 14.241L2.21325 7.40823C2.15963 7.27861 2.13281 7.14899 2.13281 7.01937C2.13281 6.88357 2.15665 6.75704 2.20431 6.63977C2.25794 6.51632 2.32944 6.40522 2.41882 6.30646C2.51416 6.2077 2.62439 6.13055 2.74952 6.07499C2.87465 6.01944 2.99978 5.99475 3.12491 6.00093C3.25004 6.00093 3.36921 6.02562 3.48242 6.07499C3.60159 6.12437 3.70587 6.19536 3.79524 6.28794C3.89058 6.38053 3.96506 6.49163 4.01869 6.62125L6.21739 11.806Z" fill="#2B2015"/>
<path d="M15.8339 6.00093C16.4298 6.00093 16.9869 6.1182 17.5053 6.35275C18.0237 6.58113 18.4765 6.89592 18.8638 7.29712C19.2511 7.69215 19.555 8.16125 19.7755 8.70442C20.0019 9.24142 20.1151 9.81545 20.1151 10.4265C20.1151 11.0376 20.0019 11.6085 19.7755 12.1393C19.555 12.6702 19.2511 13.1362 18.8638 13.5374C18.4765 13.9324 18.0207 14.2441 17.4963 14.4725C16.9779 14.7009 16.4208 14.8151 15.825 14.8151H13.528V16.8612C13.528 17.0032 13.5011 17.1359 13.4475 17.2593C13.3998 17.3766 13.3313 17.4784 13.2419 17.5648C13.1526 17.6513 13.0483 17.7222 12.9291 17.7778C12.81 17.8272 12.6848 17.8519 12.5537 17.8519C12.4167 17.8519 12.2886 17.8272 12.1694 17.7778C12.0562 17.7222 11.9549 17.6513 11.8655 17.5648C11.7821 17.4784 11.7136 17.3766 11.66 17.2593C11.6123 17.1359 11.5885 17.0032 11.5885 16.8612V7.01011C11.5885 6.86814 11.6123 6.73544 11.66 6.61199C11.7136 6.48854 11.7821 6.38361 11.8655 6.2972C11.9549 6.20461 12.0562 6.13363 12.1694 6.08425C12.2886 6.0287 12.4167 6.00093 12.5537 6.00093H15.8339ZM13.528 8.01003V12.806H15.8607C16.1825 12.806 16.4834 12.7411 16.7634 12.6115C17.0495 12.4819 17.2967 12.3091 17.5053 12.093C17.7138 11.8708 17.8777 11.6178 17.9969 11.3338C18.116 11.0437 18.1756 10.7413 18.1756 10.4265C18.1756 10.1117 18.1131 9.80927 17.9879 9.51917C17.8688 9.22907 17.7049 8.97292 17.4963 8.75071C17.2878 8.52234 17.0435 8.34334 16.7634 8.21372C16.4834 8.07793 16.1825 8.01003 15.8607 8.01003H13.528Z" fill="#2B2015"/>
<path d="M22.4785 17.8519C22.3414 17.8519 22.2133 17.8272 22.0941 17.7778C21.975 17.7222 21.8707 17.6482 21.7813 17.5556C21.6919 17.463 21.6204 17.355 21.5668 17.2315C21.5132 17.1081 21.4864 16.9754 21.4864 16.8334V7.03788C21.4864 6.89592 21.5132 6.76321 21.5668 6.63977C21.6204 6.51015 21.6919 6.39904 21.7813 6.30646L21.8618 6.23239L21.9065 6.19536C22.0554 6.07808 22.2372 6.01327 22.4517 6.00093H22.4874H22.4963H22.5321H28.011C28.148 6.00093 28.2761 6.0287 28.3953 6.08425C28.5204 6.13363 28.6277 6.20461 28.7171 6.2972C28.8064 6.38361 28.875 6.48854 28.9226 6.61199C28.9763 6.73544 29.0031 6.86814 29.0031 7.01011C29.0031 7.30021 28.9077 7.54093 28.7171 7.73227C28.5264 7.91744 28.291 8.01003 28.011 8.01003H23.4259V10.695H26.429C26.9116 10.695 27.3615 10.7938 27.7786 10.9913C28.2016 11.1826 28.5681 11.4449 28.8779 11.7783C29.1937 12.1054 29.441 12.4881 29.6198 12.9263C29.7985 13.3646 29.8879 13.8306 29.8879 14.3244C29.8879 14.8181 29.7985 15.2811 29.6198 15.7131C29.441 16.139 29.1937 16.5125 28.8779 16.8334C28.5681 17.1482 28.2016 17.3982 27.7786 17.5834C27.3615 17.7624 26.9116 17.8519 26.429 17.8519H22.4874H22.4785ZM23.4259 12.7041V15.8428H26.4111C26.6256 15.8428 26.8252 15.7996 27.0099 15.7131C27.1947 15.6267 27.3555 15.5095 27.4926 15.3613C27.6356 15.2132 27.7458 15.0434 27.8233 14.8521C27.9067 14.6546 27.9484 14.4447 27.9484 14.2225C27.9484 13.9941 27.9067 13.7874 27.8233 13.6022C27.7458 13.417 27.6356 13.2565 27.4926 13.1207C27.3496 12.985 27.1827 12.8831 26.9921 12.8152C26.8074 12.7411 26.6077 12.7041 26.3932 12.7041H23.4259Z" fill="#2B2015"/>
<path d="M38.3218 15.5835H33.2094L32.5391 17.2501C32.4855 17.3797 32.411 17.4908 32.3156 17.5834C32.2203 17.676 32.1131 17.7438 31.9939 17.7871C31.8807 17.8303 31.7555 17.8519 31.6185 17.8519C31.4874 17.8457 31.3593 17.8148 31.2342 17.7593C31.1031 17.7037 30.9958 17.6297 30.9124 17.5371C30.829 17.4383 30.7664 17.3303 30.7247 17.213C30.689 17.0957 30.6741 16.9692 30.68 16.8334C30.6919 16.6976 30.7247 16.5649 30.7783 16.4353L34.8629 6.61199C34.9463 6.41447 35.0655 6.26325 35.2204 6.15832C35.3754 6.05339 35.5541 6.00093 35.7567 6.00093C35.9474 6.00093 36.1202 6.05339 36.2751 6.15832C36.43 6.26325 36.5492 6.41139 36.6326 6.60273L40.744 16.4353C40.8512 16.6945 40.8661 16.9507 40.7887 17.2038C40.7172 17.4568 40.5563 17.642 40.306 17.7593C40.1809 17.8148 40.0528 17.8457 39.9217 17.8519C39.7906 17.8519 39.6655 17.8303 39.5463 17.7871C39.4331 17.7377 39.3288 17.6698 39.2335 17.5834C39.1382 17.4908 39.0607 17.3797 39.0011 17.2501L38.3218 15.5835ZM33.987 13.5744H37.5175L35.7656 9.21364L33.987 13.5744Z" fill="#2B2015"/>
<path d="M43.9374 10.9357H49.9794V6.99159C49.9794 6.8558 50.0062 6.72618 50.0598 6.60273C50.1135 6.47928 50.185 6.37435 50.2743 6.28794C50.3637 6.20153 50.468 6.13363 50.5872 6.08425C50.7063 6.0287 50.8345 6.00093 50.9715 6.00093C51.1026 6.00093 51.2247 6.0287 51.3379 6.08425C51.4571 6.13363 51.5584 6.20153 51.6418 6.28794C51.7312 6.37435 51.7997 6.47928 51.8474 6.60273C51.8951 6.72618 51.9189 6.8558 51.9189 6.99159V16.8612C51.9189 17.0032 51.8921 17.1359 51.8385 17.2593C51.7908 17.3766 51.7223 17.4784 51.6329 17.5648C51.5495 17.6513 51.4482 17.7222 51.329 17.7778C51.2098 17.8272 51.0847 17.8519 50.9536 17.8519C50.8166 17.8519 50.6885 17.8272 50.5693 17.7778C50.4561 17.7222 50.3548 17.6513 50.2654 17.5648C50.176 17.4784 50.1045 17.3766 50.0509 17.2593C50.0032 17.1359 49.9794 17.0032 49.9794 16.8612V12.9541H43.9374V16.8612C43.9374 17.0032 43.9106 17.1359 43.857 17.2593C43.8093 17.3766 43.7408 17.4784 43.6514 17.5648C43.5621 17.6513 43.4578 17.7222 43.3386 17.7778C43.2194 17.8272 43.0943 17.8519 42.9632 17.8519C42.8262 17.8519 42.6981 17.8272 42.5789 17.7778C42.4657 17.7222 42.3644 17.6513 42.275 17.5648C42.1916 17.4784 42.1231 17.3766 42.0694 17.2593C42.0218 17.1359 41.9979 17.0032 41.9979 16.8612V6.99159C41.9979 6.8558 42.0218 6.72618 42.0694 6.60273C42.1231 6.47928 42.1916 6.37435 42.275 6.28794C42.3644 6.20153 42.4657 6.13363 42.5789 6.08425C42.6981 6.0287 42.8262 6.00093 42.9632 6.00093C43.0943 6.00093 43.2194 6.0287 43.3386 6.08425C43.4578 6.13363 43.5621 6.20153 43.6514 6.28794C43.7408 6.37435 43.8093 6.47928 43.857 6.60273C43.9106 6.72618 43.9374 6.8558 43.9374 6.99159V10.9357Z" fill="#2B2015"/>
<path d="M91.4586 11.4069H95.8266C96.142 11.4069 96.3847 11.6845 96.3847 11.9874C96.3847 12.3155 96.142 12.5678 95.8266 12.5678H91.4586V16.4038H97.2099C97.501 16.4038 97.768 16.6814 97.768 16.9842C97.768 17.3123 97.501 17.5647 97.2099 17.5647H90.9005C90.6094 17.5647 90.3667 17.3123 90.3667 16.9842V6.99055C90.3667 6.68771 90.6094 6.41008 90.9005 6.41008H97.2099C97.501 6.41008 97.768 6.68771 97.768 6.99055C97.768 7.31862 97.501 7.57098 97.2099 7.57098H91.4586V11.4069ZM120.054 0.858045C119.909 0.580441 120.006 0.227129 120.273 0.0757098C120.54 -0.0757098 120.879 0.0252366 121.025 0.302839L127.237 11.7098C127.334 11.8864 127.334 12.1136 127.237 12.2902L120.879 23.6972C120.782 23.8738 120.613 24 120.419 24H115.516C115.201 24 114.958 23.7224 114.958 23.4196C114.958 23.2934 114.983 23.1672 115.055 23.0915L121.195 11.9874L115.201 1.16088H111.561L117.433 11.7098C117.53 11.8864 117.53 12.1136 117.433 12.2902L111.1 23.6972C110.93 23.9748 110.59 24.0757 110.323 23.8991C110.056 23.7476 109.983 23.3943 110.129 23.1167L116.317 11.9874L110.153 0.908516C110.081 0.807572 110.056 0.706624 110.056 0.580441C110.056 0.252366 110.299 0 110.615 0H115.516C115.71 0 115.88 0.100946 115.977 0.277602L122.335 11.7098C122.433 11.8864 122.433 12.0883 122.335 12.2902L116.463 22.8391H120.079L126.097 11.9874L120.054 0.858045ZM101.012 14.4353V16.9842C101.012 17.3123 100.77 17.5647 100.454 17.5647C100.139 17.5647 99.8962 17.3123 99.8962 16.9842V6.99055C99.8962 6.68771 100.139 6.41008 100.454 6.41008H103.609C105.72 6.41008 107.467 8.22713 107.467 10.4227C107.467 12.6183 105.72 14.4353 103.609 14.4353H101.012ZM67.7571 6.99055C67.7571 6.68771 67.9999 6.41008 68.3153 6.41008C68.6307 6.41008 68.8734 6.68771 68.8734 6.99055V15.3439L75.5226 6.63723C75.7166 6.38487 76.0564 6.33439 76.2991 6.53629C76.4448 6.66247 76.5175 6.83913 76.5175 6.99055V16.9842C76.5175 17.3123 76.2748 17.5647 75.9594 17.5647C75.644 17.5647 75.4012 17.3123 75.4012 16.9842V8.65615L68.7764 17.3123C68.6794 17.4637 68.5097 17.5647 68.3153 17.5647C67.9999 17.5647 67.7571 17.3123 67.7571 16.9842V6.99055ZM57.9609 17.2114C57.8639 17.5142 57.5242 17.6404 57.2328 17.5142C56.966 17.388 56.8203 17.0599 56.9417 16.7571L61.0913 6.7634C61.2127 6.48581 61.5524 6.33439 61.8191 6.46056C61.9649 6.53629 62.0619 6.63722 62.1106 6.7634L66.2602 16.7571C66.3816 17.0599 66.2602 17.388 65.9688 17.5142C65.6777 17.6404 65.3623 17.5142 65.241 17.2114L61.6008 8.45424L57.9609 17.2114ZM79.7936 16.4038L82.4389 6.83913C82.5116 6.58674 82.7299 6.41008 82.9727 6.41008H87.0253C87.3163 6.41008 87.5834 6.68771 87.5834 6.99055V16.4038H88.3843C88.6997 16.4038 88.9424 16.6814 88.9424 16.9842V19.2808C88.9424 19.6088 88.6997 19.8612 88.3843 19.8612C88.0929 19.8612 87.8261 19.6088 87.8261 19.2808V17.5647H79.5752V19.2808C79.5752 19.6088 79.3325 19.8612 79.0171 19.8612C78.726 19.8612 78.459 19.6088 78.459 19.2808V16.9842C78.459 16.6814 78.726 16.4038 79.0171 16.4038H79.7936ZM83.3851 7.57098L80.9585 16.4038H86.4672V7.57098H83.3851ZM106.351 10.4227C106.351 8.85805 105.113 7.57098 103.609 7.57098H101.012V13.2745H103.609C105.113 13.2745 106.351 11.9874 106.351 10.4227Z" fill="#00857C"/>
</svg>
